<svg baseProfile="tiny" xmlns="http://www.w3.org/2000/svg" viewBox="0 0 1397.61 1075"><path fill="#FDC305" d="M1016.72 476.96C941.3 296.43 733.81 211.22 553.28 286.64S287.54 569.56 362.97 750.09c49.61 118.75 156.37 196.26 275.02 213.93-8.02-28.92-16.08-60.88-23.4-94.84 20.74 13.72 42.73 24.97 65.98 35.35-.09.05-.19.09-.28.14 0 0 1.64 29.83 3.86 63.16 24.53.41 49.32-1.75 73.98-6.61-.58-2.18-.6-5.6.16-10.54 3.96-25.76 15.12-72.44 17.27-102.47 15.62-14.72 29.58-32.17 40.12-51.36l-.06.5c-.24 1.99-.49 3.99-.75 5.99-7.67 59-23.58 121.93-33.25 139.34-3.36 6.05-7.55 11.87-11.48 15.95a356.027 356.027 0 0056.28-18.22c180.52-75.43 265.73-282.92 190.3-463.45zm-20.44 52.37c-6 6-18.67 10-20.67-8s-2.67-30.67-2.67-30.67-26.67-47.33-36.67-48c-10-.67-80.67 48-99.33 68.67-16.11 17.84-19.33 16.67-19.33 48 0 23.7 3.05 112.98 1.36 181.33 0 0-30.03 8-112.7 30s-108 24.67-108 24.67l-14-80.67s-.01 0-.03-.01c-.07-.01-.26-.05-.55-.09h-.03c-.14-.02-.3-.04-.48-.07-.2-.03-.43-.06-.68-.09L546.94 532s-52.67-20-72-25.33c-19.33-5.33-31.33-9.33-56 8.67s-24 53.33-24 53.33 6 13.33 6.67 20c.67 6.67-16.67 6-28 6s-12.67-20-4-43.33C378.28 528 396.28 500 396.28 500s16.67-31.33 28.67-40c0 0 2-4.67 17.33-3.33 15.33 1.33 100.67 6 100.67 6l.74-31.47c92.59-12.62 186.62-19.01 280.07-18.48-.14 8.41-.4 16.85-.8 25.28 0 0 60.67-28 112.67-27.33 0 0 6-.67 10.67 5.33s33.33 41.33 36.67 46.67c3.33 5.33 16.67 24 25.33 42-.02 0-6.02 18.66-12.02 24.66z"/><path fill="#F06351" d="M969.29 444.84c6.56 8.27 12.28 15.62 13.65 17.82 3.33 5.33 16.67 24 25.33 42 0 0-6 18.67-12 24.67s-18.67 10-20.67-8-2.67-30.67-2.67-30.67-26.67-47.33-36.67-48c-10-.67-80.67 48-99.33 68.67-16.11 17.84-19.33 16.67-19.33 48 0 20.78 2.34 91.99 1.79 155.3 25.03 2.89 61.79 9.82 72.88 26.03 0 0-4-99.33 108-47.33 0 0 4-135.33 158.67-100.67 0 .01-78.41-96.26-189.65-147.82zm-145.54-32.12C825.76 294.93 804.28 184 804.28 184s-2-18-12-3.33-16.67 54.67-16.67 54.67c-103.33-6-177.33 4.67-177.33 4.67-11.33-38-30.67-54.67-40-50.67-9.33 4-10 46-10 46l-4.6 195.86c92.59-12.62 186.62-19.01 280.07-18.48z"/><path fill="#E55645" d="M815.67 796.83c1.75-14.73 2.77-34.38 3.31-56.16 0 0-30.03 8-112.7 30s-108 24.67-108 24.67l15.33 69.33c.32 1.51.64 3.01.97 4.51 20.74 13.72 42.73 24.97 65.98 35.35 60.49-29.94 95.05-57.19 95.05-57.19l-.06.86c15.61-14.72 29.57-32.18 40.12-51.37z"/><path d="M630.94 369.33c-.63-1.26 14.2 9.45 19.53 12.79 5.33 3.33 8.47 5.88 8.47 8.21 0 2.33-3.67 4.67-8.67 4.67s-12.67-1.67-13.33-3.67c0 0 8.33-.33 13-.33h4s-19.33-14.33-23-21.67zm103.79 1.58s-14.54 17.7-15.09 18.51c-.54.81-2.3 4.74 2.57 4.06s15.43-3.11 16.92-3.93c1.49-.81.96-2.72-1.62-2.44-2.84.31-9.48.68-13.67 1.49l11.68-17.51c.01 0 .37-1.64-.79-.18zm-43.5 84.59s11.25-4.88 15.13-14 .5-12.67-6.13-13.58-18.63-.42-24.13 4.71-4.75 10.13-.75 13.25 11.76 8.37 15.88 9.62z"/><path fill="#F06351" d="M685.61 472.88s-2.49 5.17-6.37 8.25c-3.38 2.69-7.87 5.05-14.13 5.37-8.86.45-14.66-2.35-20.16-6.18-2.82-1.96-5.49-3.54-7.4-6.14-2.18-2.53-4.94-3.51-4.94-3.51s10.38 56.93 35.63 65.93 29.77-10.41 30.56-15.74c.67-4.53 0-28.92-11.39-44.77-.2-4.21-.42-1.39-1.8-3.21z"/><path d="M662.82 488.61h-.22c-17.96-.15-31.82-18.9-32.4-19.7a1.998 1.998 0 013.23-2.35c.13.18 13.28 17.93 29.22 18.05h.17c8.12 0 15.72-4.62 22.61-13.75l1.98-2.62 1.42 2.96c.05.1 5.18 10.49 13.73 11.03 6.89.43 14.62-5.71 22.44-17.75a2.002 2.002 0 113.36 2.18c-8.79 13.53-17.57 20.1-26.07 19.56-7.82-.5-13.08-6.87-15.52-10.61-7.22 8.63-15.27 13-23.95 13z"/><circle fill="#FDC305" cx="689.84" cy="622.95" r="51.88"/><path fill="#111" d="M758.7 580.84l-43.35 18.11 15.91-77.97-103.77 135.06 43.35-18.11-15.91 77.97L758.7 580.84zm-102.21 52.89l57.15-74.82-11.16 55.61 27.21-11.37-57.15 74.82 11.16-55.61-27.21 11.37z"/><circle fill="#111" cx="637.02" cy="597.98" r="15.54"/><circle fill="#111" cx="727.24" cy="658.74" r="10.99"/><circle fill="#111" cx="740.57" cy="634.72" r="4.81"/><path fill="#F06351" d="M822.94 437.74s-35.33 31.18-70.33 72.1-73.5 67.72-73.5 67.72c-3-7.31-22.5-20.95-22.5-20.95s-43.5-29.72-72-53.1c-16.38-13.44-32.59-30.09-43.41-41.83-4.06-.22-14.8-.79-27.86-1.51 65.17 96.81 166.28 122.26 166.28 122.26 12-1.95 45.5-25.82 70.5-45.31 25-19.49 66-62.85 82.5-81.85 8.35-9.61 13.11-19.72 15.78-27.36-15.42 5.32-25.46 9.83-25.46 9.83zm-276 94.26s-52.67-20-72-25.33c-19.33-5.33-31.33-9.33-56 8.67s-24 53.33-24 53.33 6 13.33 6.67 20c.67 6.67-16.67 6-28 6s-12.67-20-4-43.33C378.28 528 396.28 500 396.28 500c-75.33 39.33-208 130-208 130s40.67-4 113.33 3.33c72.67 7.33 68.67 64.67 68.67 64.67s48.67-13.33 78-15.33S479.61 712 479.61 712l7.33 53.33s6.67-8.67 36.67-32.67c25.75-20.6 53.75-18.84 60.67-18L546.94 532z"/></svg>