<?xml version="1.0" encoding="utf-8"?>
<!-- Generator: Adobe Illustrator 24.1.1, SVG Export Plug-In . SVG Version: 6.00 Build 0)  -->
<svg version="1.1" baseProfile="tiny" id="Layer_2" xmlns="http://www.w3.org/2000/svg" xmlns:xlink="http://www.w3.org/1999/xlink"
	 x="0px" y="0px" viewBox="0 0 1397.61 1075" xml:space="preserve">
<path fill="#FDC305" d="M1016.72,476.96C941.3,296.43,733.81,211.22,553.28,286.64S287.54,569.56,362.97,750.09
	c49.61,118.75,156.37,196.26,275.02,213.93c-8.02-28.92-16.08-60.88-23.4-94.84c20.74,13.72,42.73,24.97,65.98,35.35
	c-0.09,0.05-0.19,0.09-0.28,0.14c0,0,1.64,29.83,3.86,63.16c24.53,0.41,49.32-1.75,73.98-6.61c-0.58-2.18-0.6-5.6,0.16-10.54
	c3.96-25.76,15.12-72.44,17.27-102.47c15.62-14.72,29.58-32.17,40.12-51.36c-0.02,0.17-0.04,0.34-0.06,0.5
	c-0.24,1.99-0.49,3.99-0.75,5.99c-7.67,59-23.58,121.93-33.25,139.34c-3.36,6.05-7.55,11.87-11.48,15.95
	c18.93-4.43,37.75-10.47,56.28-18.22C1006.94,864.98,1092.15,657.49,1016.72,476.96z M996.28,529.33c-6,6-18.67,10-20.67-8
	s-2.67-30.67-2.67-30.67s-26.67-47.33-36.67-48c-10-0.67-80.67,48-99.33,68.67c-16.11,17.84-19.33,16.67-19.33,48
	c0,23.7,3.05,112.98,1.36,181.33v0v0c0,0-30.03,8-112.7,30c-82.67,22-108,24.67-108,24.67l-14-80.67c0,0-0.01,0-0.03-0.01
	c-0.07-0.01-0.26-0.05-0.55-0.09c-0.01,0-0.02,0-0.03,0c-0.14-0.02-0.3-0.04-0.48-0.07c-0.2-0.03-0.43-0.06-0.68-0.09c0,0,0,0,0,0
	L546.94,532c0,0-52.67-20-72-25.33c-19.33-5.33-31.33-9.33-56,8.67c-24.67,18-24,53.33-24,53.33s6,13.33,6.67,20
	c0.67,6.67-16.67,6-28,6s-12.67-20-4-43.33C378.28,528,396.28,500,396.28,500s16.67-31.33,28.67-40c0,0,2-4.67,17.33-3.33
	c15.33,1.33,100.67,6,100.67,6l0.74-31.47c92.59-12.62,186.62-19.01,280.07-18.48c-0.14,8.41-0.4,16.85-0.8,25.28
	c0,0,60.67-28,112.67-27.33c0,0,6-0.67,10.67,5.33c4.67,6,33.33,41.33,36.67,46.67c3.33,5.33,16.67,24,25.33,42
	C1008.28,504.67,1002.28,523.33,996.28,529.33z"/>
<path fill="#F06351" d="M969.29,444.84c6.56,8.27,12.28,15.62,13.65,17.82c3.33,5.33,16.67,24,25.33,42c0,0-6,18.67-12,24.67
	s-18.67,10-20.67-8s-2.67-30.67-2.67-30.67s-26.67-47.33-36.67-48c-10-0.67-80.67,48-99.33,68.67c-16.11,17.84-19.33,16.67-19.33,48
	c0,20.78,2.34,91.99,1.79,155.3c25.03,2.89,61.79,9.82,72.88,26.03c0,0-4-99.33,108-47.33c0,0,4-135.33,158.67-100.67
	C1158.94,592.67,1080.53,496.4,969.29,444.84z"/>
<path fill="#F06351" d="M823.75,412.72C825.76,294.93,804.28,184,804.28,184s-2-18-12-3.33c-10,14.67-16.67,54.67-16.67,54.67
	c-103.33-6-177.33,4.67-177.33,4.67c-11.33-38-30.67-54.67-40-50.67c-9.33,4-10,46-10,46l-4.6,195.86
	C636.27,418.58,730.3,412.19,823.75,412.72z"/>
<path fill="#E55645" d="M815.67,796.83c1.75-14.73,2.77-34.38,3.31-56.16c0,0-30.03,8-112.7,30c-82.67,22-108,24.67-108,24.67
	l15.33,69.33c0.32,1.51,0.64,3.01,0.97,4.51c20.74,13.72,42.73,24.97,65.98,35.35c60.49-29.94,95.05-57.19,95.05-57.19
	c-0.02,0.28-0.04,0.58-0.06,0.86C791.16,833.48,805.12,816.02,815.67,796.83z"/>
<path d="M630.94,369.33c-0.63-1.26,14.2,9.45,19.53,12.79c5.33,3.33,8.47,5.88,8.47,8.21c0,2.33-3.67,4.67-8.67,4.67
	s-12.67-1.67-13.33-3.67c0,0,8.33-0.33,13-0.33h4C653.94,391,634.61,376.67,630.94,369.33z"/>
<path d="M734.73,370.91c0,0-14.54,17.7-15.09,18.51c-0.54,0.81-2.3,4.74,2.57,4.06s15.43-3.11,16.92-3.93
	c1.49-0.81,0.96-2.72-1.62-2.44c-2.84,0.31-9.48,0.68-13.67,1.49l11.68-17.51C735.53,371.09,735.89,369.45,734.73,370.91z"/>
<path d="M691.23,455.5c0,0,11.25-4.88,15.13-14s0.5-12.67-6.13-13.58s-18.63-0.42-24.13,4.71s-4.75,10.13-0.75,13.25
	S687.11,454.25,691.23,455.5z"/>
<path fill="#F06351" d="M685.61,472.88c0,0-2.49,5.17-6.37,8.25c-3.38,2.69-7.87,5.05-14.13,5.37c-8.86,0.45-14.66-2.35-20.16-6.18
	c-2.82-1.96-5.49-3.54-7.4-6.14c-2.18-2.53-4.94-3.51-4.94-3.51s10.38,56.93,35.63,65.93s29.77-10.41,30.56-15.74
	c0.67-4.53,0-28.92-11.39-44.77C687.21,471.88,686.99,474.7,685.61,472.88z"/>
<g>
	<path d="M662.82,488.61c-0.07,0-0.15,0-0.22,0c-17.96-0.15-31.82-18.9-32.4-19.7c-0.65-0.89-0.45-2.14,0.44-2.79
		c0.89-0.65,2.14-0.46,2.79,0.44c0.13,0.18,13.28,17.93,29.22,18.05c0.06,0,0.11,0,0.17,0c8.12,0,15.72-4.62,22.61-13.75l1.98-2.62
		l1.42,2.96c0.05,0.1,5.18,10.49,13.73,11.03c6.89,0.43,14.62-5.71,22.44-17.75c0.6-0.93,1.84-1.19,2.77-0.59
		c0.93,0.6,1.19,1.84,0.59,2.77c-8.79,13.53-17.57,20.1-26.07,19.56c-7.82-0.5-13.08-6.87-15.52-10.61
		C679.55,484.24,671.5,488.61,662.82,488.61z"/>
</g>
<circle fill="#FDC305" cx="689.84" cy="622.95" r="51.88"/>
<path fill="#111111" d="M758.7,580.84l-43.35,18.11l15.91-77.97L627.49,656.04l43.35-18.11l-15.91,77.97L758.7,580.84z
	 M656.49,633.73l57.15-74.82l-11.16,55.61l27.21-11.37l-57.15,74.82l11.16-55.61L656.49,633.73z"/>
<circle fill="#111111" cx="637.02" cy="597.98" r="15.54"/>
<circle fill="#111111" cx="727.24" cy="658.74" r="10.99"/>
<circle fill="#111111" cx="740.57" cy="634.72" r="4.81"/>
<path fill="#F06351" d="M822.94,437.74c0,0-35.33,31.18-70.33,72.1s-73.5,67.72-73.5,67.72c-3-7.31-22.5-20.95-22.5-20.95
	s-43.5-29.72-72-53.1c-16.38-13.44-32.59-30.09-43.41-41.83c-4.06-0.22-14.8-0.79-27.86-1.51
	c65.17,96.81,166.28,122.26,166.28,122.26c12-1.95,45.5-25.82,70.5-45.31c25-19.49,66-62.85,82.5-81.85
	c8.35-9.61,13.11-19.72,15.78-27.36C832.98,433.23,822.94,437.74,822.94,437.74z"/>
<path fill="#F06351" d="M546.94,532c0,0-52.67-20-72-25.33c-19.33-5.33-31.33-9.33-56,8.67c-24.67,18-24,53.33-24,53.33
	s6,13.33,6.67,20c0.67,6.67-16.67,6-28,6s-12.67-20-4-43.33C378.28,528,396.28,500,396.28,500c-75.33,39.33-208,130-208,130
	s40.67-4,113.33,3.33c72.67,7.33,68.67,64.67,68.67,64.67s48.67-13.33,78-15.33c29.33-2,31.33,29.33,31.33,29.33l7.33,53.33
	c0,0,6.67-8.67,36.67-32.67c25.75-20.6,53.75-18.84,60.67-18c0,0,0,0,0,0L546.94,532z"/>
</svg>
